<?xml version="1.0" encoding="UTF-8"?>
<svg xmlns="http://www.w3.org/2000/svg" viewBox="0 0 1600 300" role="img" aria-label="FV下段キャラクター集合プレースホルダー">
  <rect width="1600" height="300" fill="#FDEEF3" opacity="0"/>
  <g font-family="sans-serif">
    <g transform="translate(80 120)">
      <circle r="32" fill="#FFE0B2" stroke="#2D2D2D" stroke-width="2.5"/>
      <path d="M-28 -5 Q-32 -35 0 -38 Q32 -36 28 -8" fill="#FFD54F"/>
      <circle cx="-10" cy="-2" r="2.5" fill="#2D2D2D"/>
      <circle cx="10" cy="-2" r="2.5" fill="#2D2D2D"/>
      <path d="M-8 12 Q0 18 8 12" stroke="#2D2D2D" stroke-width="2" fill="none"/>
      <path d="M-30 40 Q-30 30 0 30 Q30 30 30 40 L30 150 L-30 150 Z" fill="#81D4FA" stroke="#2D2D2D" stroke-width="2.5"/>
    </g>
    <g transform="translate(220 130)">
      <circle r="30" fill="#FFE0B2" stroke="#2D2D2D" stroke-width="2.5"/>
      <path d="M-28 -10 Q-30 -38 0 -38 Q30 -36 30 5 L22 -25 L-22 -25 Z" fill="#8D6E63"/>
      <circle cx="-10" cy="-2" r="2.5" fill="#2D2D2D"/>
      <circle cx="10" cy="-2" r="2.5" fill="#2D2D2D"/>
      <path d="M-8 12 Q0 18 8 12" stroke="#2D2D2D" stroke-width="2" fill="none"/>
      <path d="M-30 35 Q-30 25 0 25 Q30 25 30 35 L30 140 L-30 140 Z" fill="#F48FB1" stroke="#2D2D2D" stroke-width="2.5"/>
    </g>
    <g transform="translate(360 125)">
      <circle r="30" fill="#FFD6A8" stroke="#2D2D2D" stroke-width="2.5"/>
      <path d="M-30 -5 Q-32 -34 0 -38 Q30 -36 30 -8" fill="#3E2723"/>
      <circle cx="-10" cy="-2" r="2.5" fill="#2D2D2D"/>
      <circle cx="10" cy="-2" r="2.5" fill="#2D2D2D"/>
      <path d="M-8 12 Q0 18 8 12" stroke="#2D2D2D" stroke-width="2" fill="none"/>
      <path d="M-30 38 Q-30 28 0 28 Q30 28 30 38 L30 145 L-30 145 Z" fill="#A5D6A7" stroke="#2D2D2D" stroke-width="2.5"/>
    </g>
    <g transform="translate(500 115)">
      <circle r="34" fill="#FFE0B2" stroke="#2D2D2D" stroke-width="2.5"/>
      <path d="M-32 -8 Q-36 -42 0 -44 Q34 -42 32 -10" fill="#FFA726"/>
      <circle cx="-11" cy="-2" r="2.8" fill="#2D2D2D"/>
      <circle cx="11" cy="-2" r="2.8" fill="#2D2D2D"/>
      <path d="M-8 14 Q0 20 8 14" stroke="#2D2D2D" stroke-width="2" fill="none"/>
      <path d="M-32 42 Q-32 32 0 32 Q32 32 32 42 L32 155 L-32 155 Z" fill="#FFCC80" stroke="#2D2D2D" stroke-width="2.5"/>
    </g>
    <g transform="translate(640 125)">
      <circle r="30" fill="#D7B29D" stroke="#2D2D2D" stroke-width="2.5"/>
      <path d="M-28 -10 Q-30 -38 0 -38 Q30 -36 28 -8" fill="#212121"/>
      <circle cx="-10" cy="-2" r="2.5" fill="#2D2D2D"/>
      <circle cx="10" cy="-2" r="2.5" fill="#2D2D2D"/>
      <path d="M-8 12 Q0 18 8 12" stroke="#2D2D2D" stroke-width="2" fill="none"/>
      <path d="M-30 38 Q-30 28 0 28 Q30 28 30 38 L30 145 L-30 145 Z" fill="#CE93D8" stroke="#2D2D2D" stroke-width="2.5"/>
    </g>
    <g transform="translate(780 120)">
      <circle r="32" fill="#FFE0B2" stroke="#2D2D2D" stroke-width="2.5"/>
      <circle cx="-12" cy="-2" r="4" fill="white" stroke="#2D2D2D" stroke-width="1.5"/>
      <circle cx="12" cy="-2" r="4" fill="white" stroke="#2D2D2D" stroke-width="1.5"/>
      <circle cx="-12" cy="-2" r="2" fill="#2D2D2D"/>
      <circle cx="12" cy="-2" r="2" fill="#2D2D2D"/>
      <line x1="-6" y1="-2" x2="6" y2="-2" stroke="#2D2D2D" stroke-width="1.5"/>
      <path d="M-30 -5 Q-34 -36 0 -38 Q34 -36 30 -8" fill="#6D4C41"/>
      <path d="M-8 12 Q0 18 8 12" stroke="#2D2D2D" stroke-width="2" fill="none"/>
      <path d="M-30 40 Q-30 30 0 30 Q30 30 30 40 L30 150 L-30 150 Z" fill="#90CAF9" stroke="#2D2D2D" stroke-width="2.5"/>
    </g>
    <g transform="translate(920 128)">
      <circle r="30" fill="#FFD6A8" stroke="#2D2D2D" stroke-width="2.5"/>
      <path d="M-30 -5 Q-32 -35 0 -38 Q32 -36 30 -8 L32 25 L-32 25 Z" fill="#3E2723"/>
      <circle cx="-10" cy="-2" r="2.5" fill="#2D2D2D"/>
      <circle cx="10" cy="-2" r="2.5" fill="#2D2D2D"/>
      <path d="M-8 12 Q0 18 8 12" stroke="#2D2D2D" stroke-width="2" fill="none"/>
      <path d="M-30 38 Q-30 28 0 28 Q30 28 30 38 L30 142 L-30 142 Z" fill="#FFB74D" stroke="#2D2D2D" stroke-width="2.5"/>
    </g>
    <g transform="translate(1060 125)">
      <circle r="30" fill="#FFE0B2" stroke="#2D2D2D" stroke-width="2.5"/>
      <path d="M-30 -5 Q-32 -35 0 -38 Q32 -36 30 -8" fill="#8D6E63"/>
      <circle cx="-10" cy="-2" r="2.5" fill="#2D2D2D"/>
      <circle cx="10" cy="-2" r="2.5" fill="#2D2D2D"/>
      <path d="M-8 12 Q0 18 8 12" stroke="#2D2D2D" stroke-width="2" fill="none"/>
      <path d="M-30 38 Q-30 28 0 28 Q30 28 30 38 L30 145 L-30 145 Z" fill="#EF9A9A" stroke="#2D2D2D" stroke-width="2.5"/>
    </g>
    <g transform="translate(1200 120)">
      <circle r="32" fill="#FFD6A8" stroke="#2D2D2D" stroke-width="2.5"/>
      <path d="M-32 -5 Q-35 -40 0 -42 Q35 -40 32 -8 L35 55 L-35 55 Z" fill="#4E342E"/>
      <circle cx="-10" cy="-2" r="2.5" fill="#2D2D2D"/>
      <circle cx="10" cy="-2" r="2.5" fill="#2D2D2D"/>
      <path d="M-8 12 Q0 18 8 12" stroke="#2D2D2D" stroke-width="2" fill="none"/>
      <path d="M-30 40 Q-30 30 0 30 Q30 30 30 40 L30 150 L-30 150 Z" fill="#80CBC4" stroke="#2D2D2D" stroke-width="2.5"/>
    </g>
    <g transform="translate(1340 130)">
      <circle r="30" fill="#FFE0B2" stroke="#2D2D2D" stroke-width="2.5"/>
      <ellipse cx="0" cy="-30" rx="36" ry="12" fill="#6D4C41"/>
      <rect x="-40" y="-40" width="80" height="12" fill="#6D4C41"/>
      <circle cx="-10" cy="-2" r="2.5" fill="#2D2D2D"/>
      <circle cx="10" cy="-2" r="2.5" fill="#2D2D2D"/>
      <path d="M-8 12 Q0 18 8 12" stroke="#2D2D2D" stroke-width="2" fill="none"/>
      <path d="M-30 38 Q-30 28 0 28 Q30 28 30 38 L30 142 L-30 142 Z" fill="#B39DDB" stroke="#2D2D2D" stroke-width="2.5"/>
    </g>
    <g transform="translate(1480 125)">
      <circle r="30" fill="#D7B29D" stroke="#2D2D2D" stroke-width="2.5"/>
      <path d="M-36 -8 Q-38 -20 -25 -30 Q0 -44 25 -30 Q38 -20 36 -8 L38 45 L-38 45 Z" fill="#EC407A"/>
      <circle cx="-10" cy="-2" r="2.5" fill="#2D2D2D"/>
      <circle cx="10" cy="-2" r="2.5" fill="#2D2D2D"/>
      <path d="M-8 12 Q0 18 8 12" stroke="#2D2D2D" stroke-width="2" fill="none"/>
      <path d="M-30 38 Q-30 28 0 28 Q30 28 30 38 L30 145 L-30 145 Z" fill="#FFF59D" stroke="#2D2D2D" stroke-width="2.5"/>
    </g>
  </g>
  <text x="800" y="285" text-anchor="middle" font-family="sans-serif" font-size="13" font-weight="700" fill="#E84B8A" opacity="0.85">
    PLACEHOLDER — 生成画像（fv-crowd.png）に差し替え
  </text>
</svg>
