<?xml version="1.0" encoding="UTF-8"?>
<svg xmlns="http://www.w3.org/2000/svg" viewBox="0 0 300 400" role="img" aria-label="FVキャラクター・女性プレースホルダー">
  <defs>
    <linearGradient id="girlBg" x1="0" y1="0" x2="0" y2="1">
      <stop offset="0%" stop-color="#FFFDE7"/>
      <stop offset="100%" stop-color="#FFECB3"/>
    </linearGradient>
  </defs>
  <rect width="300" height="400" rx="20" fill="url(#girlBg)" stroke="#F9A825" stroke-width="3" stroke-dasharray="8 6"/>
  <g transform="translate(150 140)">
    <circle r="52" fill="#FFE0B2" stroke="#2D2D2D" stroke-width="3"/>
    <path d="M-50 -5 Q-55 -60 0 -65 Q60 -60 52 10 Q55 40 40 45 L40 -20 Q35 -30 20 -30 L-30 -30 Q-50 -30 -50 -5 Z" fill="#5D4037"/>
    <circle cx="-18" cy="-4" r="4" fill="#2D2D2D"/>
    <circle cx="18" cy="-4" r="4" fill="#2D2D2D"/>
    <path d="M-12 22 Q0 32 12 22" stroke="#2D2D2D" stroke-width="3" fill="none" stroke-linecap="round"/>
    <circle cx="-30" cy="18" r="6" fill="#F8BBD0" opacity="0.7"/>
    <circle cx="30" cy="18" r="6" fill="#F8BBD0" opacity="0.7"/>
  </g>
  <path d="M95 220 Q95 200 150 200 Q205 200 205 220 L205 300 Q150 310 95 300 Z" fill="#FFD93D" stroke="#2D2D2D" stroke-width="3"/>
  <path d="M95 300 L205 300 L215 365 L85 365 Z" fill="#42A5F5" stroke="#2D2D2D" stroke-width="3"/>
  <text x="150" y="395" text-anchor="middle" font-family="sans-serif" font-size="11" font-weight="700" fill="#F9A825">
    PLACEHOLDER (girl)
  </text>
</svg>
